<?xml version="1.0" standalone="no"?>
<!DOCTYPE svg PUBLIC "-//W3C//DTD SVG 20010904//EN"
 "http://www.w3.org/TR/2001/REC-SVG-20010904/DTD/svg10.dtd">
<svg version="1.0" xmlns="http://www.w3.org/2000/svg"
 width="1170.000000pt" height="1165.000000pt" viewBox="0 0 1170.000000 1165.000000"
 preserveAspectRatio="xMidYMid meet">

<g transform="translate(0.000000,1165.000000) scale(0.100000,-0.100000)"
fill="#000000" stroke="none">
<path d="M5972 10318 c-7 -7 -12 -22 -12 -35 0 -28 36 -46 63 -31 33 17 15 78
-23 78 -9 0 -21 -5 -28 -12z"/>
<path d="M6165 10038 c-3 -7 -11 -31 -18 -52 -12 -35 -20 -42 -63 -56 -62 -21
-63 -41 -2 -59 44 -13 49 -18 67 -65 10 -28 25 -51 32 -51 7 0 20 22 29 49 15
44 19 49 65 65 64 21 64 40 0 61 -47 15 -51 20 -66 65 -15 49 -35 68 -44 43z
m25 -103 c0 -8 10 -20 22 -26 l22 -12 -22 -8 c-12 -5 -22 -15 -22 -24 0 -8 -4
-15 -10 -15 -5 0 -10 7 -10 15 0 9 -10 19 -22 24 l-22 8 22 12 c12 6 22 18 22
26 0 8 5 15 10 15 6 0 10 -7 10 -15z"/>
<path d="M6493 9644 c-31 -95 -27 -92 -138 -124 -90 -25 -85 -42 22 -77 l88
-28 18 -60 c44 -145 54 -148 94 -27 l28 87 88 28 c53 17 87 34 87 42 0 8 -34
25 -87 42 l-88 28 -28 88 c-17 53 -34 87 -42 87 -8 0 -25 -33 -42 -86z m132
-134 c28 -9 48 -21 45 -26 -3 -5 -25 -16 -50 -24 -42 -14 -46 -19 -66 -74
l-21 -60 -20 59 c-18 56 -22 60 -67 76 -26 9 -48 20 -49 24 -1 5 20 16 47 25
48 16 51 19 69 75 l20 59 21 -59 c20 -56 23 -59 71 -75z"/>
<path d="M5846 9634 c-20 -20 -20 -63 0 -92 19 -28 74 -30 97 -4 22 25 21 75
-1 95 -23 21 -76 22 -96 1z m68 -29 c20 -20 10 -45 -19 -45 -29 0 -39 25 -19
45 9 8 17 15 19 15 2 0 10 -7 19 -15z"/>
<path d="M6142 9368 c-18 -18 -14 -45 10 -62 37 -26 79 14 58 55 -12 21 -50
25 -68 7z"/>
<path d="M5654 9292 c-5 -4 -26 -68 -46 -142 -20 -74 -59 -219 -87 -322 l-51
-188 108 -324 107 -325 234 -146 c129 -80 241 -145 248 -143 8 2 31 44 53 93
37 88 52 105 58 68 9 -56 13 -65 30 -61 20 6 446 303 459 321 5 6 32 64 60
127 28 63 83 185 121 271 l70 155 -29 185 c-16 101 -36 236 -45 300 -9 64 -20
122 -24 129 -8 13 -40 -2 -235 -115 -49 -29 -124 -71 -165 -94 l-75 -42 -85
-164 c-47 -91 -89 -163 -95 -162 -5 2 -26 53 -46 113 l-35 109 -115 80 c-63
45 -145 103 -184 130 -38 26 -104 72 -145 101 -42 29 -80 50 -86 46z m1221
-244 c-8 -185 -9 -188 -86 -188 -47 0 -48 0 -78 57 -17 31 -31 61 -31 66 0 10
188 227 197 227 3 0 2 -73 -2 -162z m-963 31 c95 -66 179 -126 186 -133 11
-11 -6 -17 -87 -33 -119 -24 -101 -36 -193 127 -82 145 -90 160 -83 160 2 0
82 -54 177 -121z m-121 -64 c43 -77 79 -146 79 -153 0 -29 -44 -202 -52 -202
-4 0 -37 21 -73 47 l-65 47 0 220 c1 257 -9 253 111 41z m970 128 c-22 -27
-57 -68 -78 -92 l-38 -43 -65 14 -65 15 30 17 c152 86 241 135 248 136 5 0 -9
-21 -32 -47z m-1121 -207 l0 -174 -56 -42 c-30 -23 -57 -40 -60 -38 -2 2 8 44
21 94 14 49 39 144 57 211 18 68 34 123 36 123 1 0 2 -78 2 -174z m1300 -6
c12 -73 19 -138 17 -144 -2 -6 -16 8 -30 31 -26 41 -27 46 -20 148 3 58 8 104
9 102 2 -2 13 -63 24 -137z m-391 59 c36 -6 73 -15 81 -20 8 -4 31 -37 50 -72
l34 -65 -56 -149 c-31 -81 -77 -200 -101 -263 l-44 -114 -47 -20 c-26 -10 -48
-17 -50 -15 -3 3 -109 299 -128 359 -6 17 171 370 186 370 5 0 39 -5 75 -11z
m-347 -226 c27 -76 77 -223 113 -327 l65 -190 -32 -35 c-18 -20 -52 -57 -77
-83 l-43 -46 -85 23 c-47 13 -86 25 -88 27 -1 2 -26 62 -55 133 -28 72 -58
144 -65 160 -7 17 -28 67 -46 113 l-33 82 23 103 c13 56 27 109 31 117 7 13
172 56 225 59 17 1 27 -20 67 -136z m721 -7 c26 -40 47 -79 47 -85 0 -14 -218
-503 -229 -514 -5 -5 -45 -11 -89 -14 l-79 -6 -12 65 c-6 36 -11 72 -11 82 0
9 28 88 61 174 34 86 68 175 75 197 7 22 24 67 38 100 22 53 29 61 58 66 87
17 91 15 141 -65z m-1180 -94 l79 -58 90 -219 c49 -121 92 -231 94 -245 4 -22
-4 -31 -68 -73 -72 -47 -74 -48 -148 -45 l-74 3 -18 50 c-10 28 -32 93 -49
145 -17 52 -41 124 -53 160 -52 148 -78 230 -74 239 4 13 120 100 133 100 6 0
45 -26 88 -57z m782 -473 c6 -61 5 -74 -11 -94 -27 -33 -135 -163 -161 -194
l-22 -26 -1 81 c0 76 3 88 45 178 37 80 50 98 77 110 61 27 65 23 73 -55z
m-252 -187 c-26 -56 -48 -100 -50 -99 -1 2 4 37 13 78 12 57 22 81 47 107 17
18 33 29 35 24 1 -5 -19 -54 -45 -110z m397 99 c0 -7 -86 -69 -223 -161 -21
-14 -21 -14 -7 5 8 11 37 47 64 80 28 33 52 62 54 65 2 2 27 7 55 11 29 3 53
7 55 8 1 0 2 -3 2 -8z m-533 -32 l73 -22 -6 -37 c-17 -103 -51 -241 -59 -239
-16 3 -235 212 -235 224 0 13 119 93 140 94 8 1 48 -9 87 -20z m-207 -154 c35
-36 61 -65 58 -65 -8 0 -177 107 -192 121 -6 5 6 9 30 9 35 0 46 -7 104 -65z"/>
<path d="M5296 8939 c-33 -26 -35 -70 -4 -99 44 -41 111 -11 111 50 0 22 -7
39 -22 52 -30 23 -52 23 -85 -3z m69 -49 c0 -18 -6 -26 -23 -28 -24 -4 -38 18
-28 44 3 9 15 14 28 12 17 -2 23 -10 23 -28z"/>
<path d="M7135 8468 c-32 -29 -43 -102 -24 -168 7 -25 14 -53 16 -64 8 -45 81
-162 186 -297 62 -80 130 -172 151 -205 21 -32 50 -77 65 -99 l27 -40 -4 -178
c-4 -174 -5 -177 -25 -171 -12 4 -28 14 -37 22 -31 31 -163 83 -495 192 -350
114 -423 132 -450 110 -56 -47 39 -207 181 -305 156 -107 463 -275 506 -275 9
0 19 -4 22 -9 3 -4 26 -14 51 -21 25 -7 48 -16 50 -21 3 -4 -27 -27 -67 -50
-103 -60 -248 -160 -349 -240 -48 -38 -89 -69 -92 -69 -2 0 -10 35 -16 78 -7
42 -26 131 -42 197 -52 206 -179 434 -270 480 -69 36 -140 2 -141 -67 -1 -28
29 -229 48 -319 6 -29 34 -35 34 -8 0 10 -11 88 -25 174 -29 174 -26 195 26
195 42 0 81 -30 134 -105 101 -141 194 -416 207 -609 l3 -49 -75 -62 c-62 -51
-76 -67 -78 -94 -2 -21 3 -40 14 -52 9 -10 14 -25 10 -34 -18 -49 66 -85 198
-85 104 0 187 18 350 76 72 25 139 47 149 48 13 1 24 -16 41 -64 13 -36 53
-126 90 -200 69 -141 82 -200 55 -253 -6 -12 -80 -89 -163 -172 -223 -220
-322 -378 -382 -610 -28 -108 -32 -246 -8 -338 19 -78 86 -211 108 -215 23 -5
20 10 -18 86 -106 213 -98 395 33 667 61 127 150 246 270 360 197 186 211 205
211 283 0 51 -14 88 -93 253 -36 75 -71 156 -77 181 -11 42 -10 48 9 67 26 26
27 43 2 65 -18 17 -20 17 -40 -3 -12 -12 -21 -28 -21 -36 0 -20 -33 -35 -205
-93 -194 -66 -281 -80 -378 -64 -116 20 -115 36 7 92 44 21 158 75 251 120
218 105 257 120 309 120 59 0 124 -48 256 -191 58 -63 181 -191 274 -286 93
-95 180 -187 193 -206 37 -52 73 -164 73 -229 0 -120 -50 -359 -115 -548 -14
-41 -29 -84 -32 -95 -13 -47 -110 -270 -170 -390 -76 -154 -159 -280 -280
-428 -208 -256 -290 -380 -344 -523 -42 -112 -55 -124 -128 -124 -155 0 -469
156 -644 320 -82 77 -99 117 -71 176 10 21 68 104 128 184 214 284 225 360 88
592 -65 111 -107 229 -126 361 -20 135 -21 470 -2 712 23 286 31 441 29 574
-2 140 -9 194 -25 189 -8 -3 -12 -75 -14 -234 -1 -126 -10 -323 -20 -439 -24
-286 -25 -703 -1 -837 20 -113 52 -203 109 -308 93 -169 102 -192 102 -255 1
-80 -35 -153 -149 -303 -170 -224 -188 -261 -161 -327 25 -60 65 -103 160
-173 112 -84 130 -95 271 -172 138 -76 339 -119 403 -86 36 19 40 25 90 149
52 128 128 244 288 442 75 94 168 217 207 275 178 269 382 791 428 1095 28
190 9 312 -68 423 l-36 53 16 68 c10 38 17 79 17 90 0 53 -34 181 -62 234 -31
57 -31 59 -20 121 31 164 12 247 -78 351 l-46 52 -18 164 c-38 354 -67 571
-88 659 -27 109 -112 238 -323 485 -127 148 -232 251 -279 270 -44 19 -40 19
-71 -7z m81 -40 c88 -66 265 -265 446 -503 87 -114 116 -200 148 -445 23 -169
60 -533 56 -538 -2 -1 -67 57 -145 130 l-143 132 7 170 c4 100 13 188 21 211
8 22 14 48 14 58 0 22 -26 33 -44 18 -10 -9 -26 8 -73 81 -34 51 -97 139 -141
195 -164 206 -210 291 -219 401 -6 71 6 112 31 112 7 0 26 -10 42 -22z m-528
-909 c185 -59 565 -184 626 -206 92 -35 180 -85 236 -136 481 -438 483 -441
459 -615 -6 -42 -13 -80 -15 -83 -2 -4 -94 84 -204 195 -212 213 -281 271
-333 281 -43 9 -184 53 -227 72 -193 84 -457 238 -554 323 -41 37 -102 126
-110 163 -6 25 -4 27 24 27 17 0 61 -10 98 -21z m808 -623 c89 -60 501 -483
535 -548 25 -48 49 -150 49 -208 0 -50 -17 -120 -29 -120 -4 0 -84 80 -177
178 -383 401 -418 431 -505 432 -50 0 -94 -17 -287 -110 -92 -45 -212 -102
-267 -129 -91 -44 -102 -47 -117 -33 -26 22 -22 36 20 73 50 46 292 229 405
308 110 77 294 181 320 181 10 0 34 -11 53 -24z"/>
<path d="M4734 8172 c-65 -48 -145 -141 -336 -395 -100 -133 -213 -279 -250
-325 -83 -102 -112 -150 -138 -232 -24 -74 -66 -281 -111 -546 l-32 -191 -43
61 c-112 158 -157 229 -181 288 -31 72 -32 107 -18 435 9 207 1 284 -37 358
-30 61 -77 105 -110 105 -39 0 -53 -36 -78 -198 -21 -134 -38 -223 -90 -467
-28 -133 -31 -157 -21 -208 9 -50 106 -310 162 -432 74 -163 194 -491 248
-680 36 -125 89 -393 131 -665 41 -265 81 -504 87 -513 3 -5 8 -26 10 -46 9
-62 63 -231 95 -295 50 -100 114 -184 242 -315 134 -137 360 -336 455 -400
124 -84 165 -89 291 -33 134 60 225 125 340 241 108 110 183 224 231 351 29
76 26 88 -38 148 -173 162 -463 409 -536 457 -13 9 -13 18 -1 75 46 213 36
451 -32 750 -99 432 -104 466 -104 694 0 197 8 236 71 345 37 64 43 91 19 91
-5 0 -30 -37 -55 -82 -65 -116 -79 -197 -72 -428 5 -144 11 -200 36 -315 74
-341 100 -465 112 -535 18 -98 18 -384 1 -475 -20 -104 -21 -106 -57 -120 -35
-15 -59 -58 -53 -97 2 -18 9 -23 33 -23 25 0 34 7 53 43 13 23 27 42 31 42 34
0 578 -483 573 -508 -9 -44 -67 -165 -115 -240 -97 -151 -251 -284 -433 -372
-89 -44 -147 -49 -205 -20 -143 73 -545 437 -668 605 -89 121 -145 257 -182
440 -24 119 -59 320 -79 450 -98 644 -148 837 -343 1315 -39 96 -99 245 -134
330 -34 85 -68 178 -74 207 -13 56 -9 85 31 273 23 103 74 377 85 450 18 120
33 140 72 98 33 -36 50 -78 67 -160 20 -99 20 -186 -1 -377 -14 -129 -14 -163
-4 -215 19 -89 68 -188 153 -307 79 -111 102 -148 118 -191 5 -16 14 -28 20
-28 18 0 28 39 55 200 74 454 107 605 151 693 15 28 70 106 123 172 53 66 166
214 251 330 215 290 327 401 386 378 49 -18 -9 -212 -96 -323 -43 -55 -302
-447 -349 -528 -23 -40 -49 -88 -56 -106 -14 -32 -78 -342 -146 -696 -17 -91
-35 -183 -39 -205 -9 -43 -6 -55 14 -55 9 0 20 37 34 108 12 59 51 260 87 447
61 318 68 346 110 430 72 147 435 683 488 720 20 14 23 14 35 -2 11 -14 13
-46 9 -133 -7 -159 -51 -296 -148 -462 -96 -163 -123 -265 -140 -543 -11 -173
-14 -192 -36 -226 -40 -61 -53 -125 -65 -319 -13 -213 -7 -300 22 -300 34 0
61 132 85 405 9 105 18 204 21 222 4 24 34 62 119 152 101 105 133 151 108
151 -4 0 -56 -48 -115 -107 l-108 -108 0 41 c0 85 22 302 37 369 15 67 40 136
66 182 6 12 32 57 57 100 81 139 128 292 137 443 4 83 2 113 -10 143 -14 33
-20 37 -51 37 -34 0 -35 0 -25 32 14 50 11 121 -7 146 -23 33 -89 30 -140 -6z
m-129 -1830 c-24 -246 -35 -277 -30 -87 4 142 13 218 31 265 15 37 15 -21 -1
-178z m325 -1714 c0 -19 -18 -43 -25 -36 -4 3 -2 16 5 27 12 24 20 27 20 9z"/>
<path d="M5101 8129 c-57 -10 -106 -21 -109 -24 -3 -3 8 -82 23 -175 l29 -171
55 -47 c31 -25 58 -49 61 -53 26 -32 628 -549 639 -549 9 1 81 25 161 54 l145
52 -1 118 -2 117 -98 92 c-105 97 -423 397 -512 482 -40 38 -76 59 -145 87
-105 42 -105 42 -246 17z m192 -36 c84 -30 53 -42 -59 -23 -82 15 -95 21 -64
30 41 13 72 11 123 -7z m-98 -53 c44 -7 90 -18 101 -26 24 -14 69 -82 61 -90
-3 -3 -40 -7 -83 -10 l-79 -5 -62 70 c-35 38 -63 73 -63 76 0 4 10 5 23 2 12
-3 58 -11 102 -17z m394 -157 c91 -87 195 -185 231 -219 36 -34 103 -98 150
-142 47 -44 83 -83 80 -86 -3 -3 -35 -8 -70 -11 l-65 -7 -253 254 c-219 220
-312 324 -312 350 0 7 25 15 54 17 11 1 85 -62 185 -156z m-414 -73 c3 -41 9
-85 12 -97 7 -33 -6 -28 -59 21 -42 39 -48 50 -62 117 -8 41 -18 97 -21 124
l-7 50 65 -70 65 -70 7 -75z m468 -178 l248 -248 6 -70 6 -69 -55 -47 -55 -47
-100 87 c-261 229 -449 396 -455 406 -9 17 -30 205 -24 222 4 11 27 14 93 14
l88 0 248 -248z m425 -312 l3 -73 -62 7 c-34 3 -63 7 -65 9 -1 1 -5 27 -9 58
l-7 56 59 10 c32 6 63 9 68 8 6 -1 11 -35 13 -75z m-88 -105 c0 -6 -25 -16
-70 -30 -25 -8 -25 -8 -6 14 17 18 76 31 76 16z"/>
<path d="M6882 8008 c-27 -27 -6 -68 34 -68 25 0 39 28 29 60 -7 22 -44 27
-63 8z"/>
<path d="M6830 7841 c-13 -25 -13 -27 6 -45 23 -24 53 -20 66 9 8 19 8 28 -2
40 -18 21 -57 19 -70 -4z"/>
<path d="M6526 7837 c-38 -27 2 -95 42 -71 24 16 28 55 6 71 -10 7 -21 13 -24
13 -3 0 -14 -6 -24 -13z"/>
<path d="M6730 7771 c-16 -31 4 -63 37 -59 34 4 52 32 37 56 -16 26 -60 28
-74 3z"/>
<path d="M6341 7598 c-5 -13 -14 -36 -19 -53 -7 -24 -19 -34 -60 -49 -29 -10
-52 -24 -52 -32 0 -7 24 -20 53 -28 51 -15 54 -18 68 -63 18 -61 38 -62 60 -3
17 47 22 51 82 74 20 8 37 19 37 24 0 5 -23 18 -52 28 -48 18 -53 23 -68 68
-19 57 -35 68 -49 34z m44 -112 c25 -24 26 -24 6 -31 -12 -3 -21 -13 -21 -21
0 -19 -5 -18 -33 10 l-24 23 21 20 c12 12 22 21 23 22 1 0 14 -10 28 -23z"/>
<path d="M5072 7123 c-27 -38 -52 -89 -52 -105 0 -7 16 11 35 40 20 29 40 50
45 47 14 -9 12 -82 -4 -140 -8 -27 -33 -94 -55 -149 -39 -90 -45 -126 -24
-126 5 0 14 12 20 28 6 15 30 71 53 125 62 148 74 251 34 292 -21 21 -30 19
-52 -12z"/>
<path d="M5613 7137 c-5 -6 -20 -47 -33 -89 l-23 -77 -56 -20 c-31 -11 -69
-24 -85 -28 -30 -9 -48 -33 -25 -33 7 0 31 9 53 20 35 16 77 26 132 29 6 1 18
26 28 56 9 30 19 55 21 55 2 0 12 -25 21 -55 15 -47 22 -56 49 -64 18 -5 44
-7 59 -6 26 3 30 -2 26 -42 -2 -29 3 -29 46 1 38 25 32 41 -16 48 -14 2 -46
12 -71 22 -45 17 -46 19 -73 101 -28 89 -38 103 -53 82z"/>
<path d="M6445 6813 c7 -85 17 -115 32 -99 10 10 9 76 -1 139 -5 32 -12 47
-23 47 -13 0 -14 -13 -8 -87z"/>
<path d="M5450 6878 c0 -18 77 -41 98 -29 21 12 -9 32 -58 38 -31 4 -40 2 -40
-9z"/>
<path d="M6120 6860 c-19 -35 -8 -83 22 -100 26 -14 29 -13 50 8 l22 22 -32 0
c-39 0 -52 23 -28 49 9 10 16 23 16 29 0 20 -39 13 -50 -8z"/>
<path d="M5666 6848 c-7 -13 -20 -41 -27 -63 l-12 -40 -13 30 c-7 17 -13 36
-14 43 0 17 -30 15 -30 -2 0 -8 5 -18 10 -21 6 -4 10 -12 9 -18 -3 -26 2 -63
10 -76 17 -27 59 13 76 74 9 30 21 57 26 60 14 10 10 35 -6 35 -8 0 -21 -10
-29 -22z"/>
<path d="M5625 6670 c-3 -5 -1 -10 4 -10 6 0 11 5 11 10 0 6 -2 10 -4 10 -3 0
-8 -4 -11 -10z"/>
<path d="M5992 6518 c-34 -34 6 -90 48 -68 35 19 20 80 -20 80 -9 0 -21 -5
-28 -12z"/>
<path d="M5362 6498 c-18 -18 -14 -56 7 -68 15 -7 25 -5 42 9 21 16 22 22 11
45 -12 28 -40 34 -60 14z"/>
<path d="M5740 6440 c-34 -34 -21 -93 26 -110 33 -13 79 11 88 45 16 65 -67
112 -114 65z m78 -47 c4 -29 -36 -43 -54 -18 -19 25 -6 47 25 43 18 -2 27 -10
29 -25z"/>
<path d="M5943 6428 c-22 -29 -23 -38 -3 -58 11 -11 24 -20 29 -20 14 0 41 30
41 45 0 17 -27 45 -44 45 -8 0 -18 -6 -23 -12z"/>
<path d="M5945 6050 c-15 -46 -20 -51 -63 -63 -65 -19 -65 -40 0 -63 49 -18
53 -22 66 -66 7 -27 19 -48 27 -48 7 0 21 22 30 49 15 46 20 51 66 66 27 9 49
22 49 30 0 7 -23 21 -52 31 -48 18 -52 22 -65 67 -18 61 -37 60 -58 -3z m62
-84 c14 -8 15 -10 1 -20 -8 -6 -19 -20 -25 -30 -10 -19 -11 -19 -17 1 -4 11
-16 25 -29 30 l-22 10 22 7 c13 4 26 19 30 34 l6 26 9 -24 c5 -14 16 -29 25
-34z"/>
<path d="M5742 5658 c-7 -7 -12 -19 -12 -28 0 -40 61 -55 80 -21 13 25 13 27
-6 45 -18 19 -45 21 -62 4z"/>
<path d="M5938 3122 c-71 -1 -128 -6 -128 -10 0 -4 9 -13 20 -20 19 -12 20
-23 20 -222 0 -199 -1 -210 -20 -222 -11 -7 -20 -16 -20 -20 0 -5 62 -8 138
-8 l138 0 11 33 c6 17 14 43 17 57 7 24 6 24 -9 -2 -23 -42 -64 -58 -145 -58
l-70 0 0 100 c0 73 3 100 13 101 71 6 132 -1 144 -17 11 -15 13 -11 13 35 0
52 0 53 -18 32 -15 -19 -25 -22 -82 -19 l-65 3 -3 103 -3 102 84 0 c76 0 86
-2 101 -22 16 -23 16 -22 13 16 -1 22 -6 40 -12 40 -5 1 -67 0 -137 -2z"/>
<path d="M1500 3111 c0 -5 7 -11 15 -15 13 -4 15 -39 15 -224 0 -216 0 -220
-22 -235 -21 -15 -13 -16 121 -14 l143 2 20 49 c22 56 18 71 -8 28 -24 -41
-53 -52 -134 -52 l-70 0 0 210 c0 197 1 211 20 230 11 11 20 22 20 25 0 3 -27
5 -60 5 -33 0 -60 -4 -60 -9z"/>
<path d="M2183 3103 c12 -15 16 -51 19 -193 3 -160 5 -178 25 -210 59 -95 207
-116 294 -43 57 48 63 72 67 263 4 146 7 177 21 187 13 10 7 12 -38 13 -52 0
-53 -1 -38 -18 14 -16 17 -44 17 -188 0 -189 -7 -214 -72 -255 -47 -29 -137
-23 -174 12 -50 46 -54 65 -54 250 0 152 2 173 18 185 15 12 9 13 -42 14 -56
0 -58 -1 -43 -17z"/>
<path d="M3038 2890 c3 -222 2 -230 -17 -242 -34 -21 -25 -28 34 -28 58 0 68
7 35 28 -19 11 -20 23 -20 187 0 96 4 175 9 175 5 0 26 -19 46 -42 21 -24 99
-108 174 -187 75 -79 138 -148 139 -152 2 -5 8 -9 13 -9 5 0 9 99 9 234 0 231
0 235 22 250 21 15 19 16 -42 16 -64 0 -65 -1 -42 -18 22 -17 22 -21 20 -196
l-3 -178 -183 196 c-101 108 -187 196 -190 196 -4 0 -6 -103 -4 -230z"/>
<path d="M4024 3005 c-121 -291 -149 -350 -172 -360 -38 -17 -25 -25 40 -25
48 0 59 3 50 12 -17 17 -15 38 9 102 l22 56 97 0 97 0 22 -59 c23 -64 26 -91
11 -91 -5 0 -10 -4 -10 -10 0 -6 28 -10 65 -10 67 0 81 8 44 25 -23 10 -31 27
-145 300 -36 88 -70 164 -74 168 -4 5 -30 -44 -56 -108z m90 -80 c20 -55 36
-101 36 -102 0 -2 -36 -3 -80 -3 -46 0 -80 4 -80 10 0 9 66 175 77 193 7 12 9
10 47 -98z"/>
<path d="M5138 3103 c22 -15 22 -19 22 -229 0 -206 -1 -214 -22 -234 l-22 -20
67 0 c38 0 67 4 67 10 0 6 -6 10 -14 10 -8 0 -17 7 -20 16 -3 9 -6 110 -6 225
l0 209 58 0 c81 -1 112 -31 112 -109 0 -56 -40 -100 -97 -108 -55 -7 -45 -23
14 -23 86 0 139 57 135 144 -1 48 -26 85 -73 108 -26 14 -58 18 -139 17 -98 0
-104 -1 -82 -16z"/>
<path d="M6500 3115 c0 -3 9 -14 20 -25 19 -19 20 -33 20 -220 0 -187 -1 -201
-20 -220 -11 -11 -20 -22 -20 -25 0 -3 56 -5 123 -5 193 0 273 34 323 135 69
142 1 308 -144 351 -43 13 -302 21 -302 9z m297 -36 c120 -45 163 -242 76
-357 -41 -55 -88 -72 -198 -72 l-95 0 0 220 0 220 94 0 c52 0 107 -5 123 -11z"/>
<path d="M7350 3111 c0 -5 7 -11 15 -15 13 -4 15 -39 15 -224 0 -216 0 -220
-22 -235 -22 -15 -20 -16 45 -16 l68 -1 -20 26 c-20 25 -21 39 -21 235 l0 209
59 0 c41 0 65 -5 80 -17 46 -37 44 -148 -2 -177 -12 -8 -41 -17 -64 -21 l-42
-7 30 -26 c16 -15 53 -61 82 -102 57 -82 120 -124 174 -118 28 3 28 3 -12 23
-22 11 -59 45 -83 75 -23 30 -55 71 -71 90 l-28 35 31 15 c36 17 76 89 76 135
0 43 -35 94 -75 111 -38 16 -235 20 -235 5z"/>
<path d="M8246 3002 c-27 -64 -69 -164 -93 -222 -30 -71 -54 -114 -76 -132
l-31 -28 62 0 c35 0 62 4 62 10 0 6 -4 10 -10 10 -16 0 -12 30 12 91 l22 58
82 3 c45 2 89 2 97 0 9 -2 25 -28 37 -58 22 -60 26 -94 9 -94 -5 0 -7 -4 -4
-10 3 -5 36 -10 73 -10 l66 0 -32 28 c-25 21 -51 72 -118 232 -47 113 -88 213
-91 223 -3 9 -8 17 -12 17 -3 0 -28 -53 -55 -118z m89 -71 c19 -51 35 -97 35
-102 0 -5 -36 -9 -80 -9 -44 0 -80 3 -80 6 0 10 83 205 86 201 2 -1 19 -45 39
-96z"/>
<path d="M8903 3102 c24 -27 27 -440 3 -458 -27 -19 -18 -24 49 -24 37 0 65 4
65 10 0 6 -5 9 -12 8 -30 -7 -38 46 -38 250 l0 202 59 0 c41 0 65 -5 80 -17
46 -37 44 -148 -2 -177 -12 -8 -41 -17 -64 -21 l-42 -7 30 -26 c16 -15 53 -61
82 -102 57 -82 120 -125 174 -118 l28 4 -30 13 c-41 17 -59 34 -127 124 -56
75 -64 97 -33 97 8 0 26 16 41 35 37 49 43 118 14 163 -30 48 -72 62 -191 62
-98 0 -101 -1 -86 -18z"/>
<path d="M9650 3114 c0 -4 8 -13 18 -20 15 -11 17 -34 17 -224 l0 -211 -25
-19 -25 -20 68 0 c70 0 81 6 47 28 -19 12 -20 23 -20 222 0 202 1 210 22 230
l22 20 -62 0 c-34 0 -62 -3 -62 -6z"/>
<path d="M10330 3063 c-114 -284 -163 -390 -193 -415 l-31 -28 62 0 c35 0 62
4 62 10 0 6 -4 10 -10 10 -17 0 -11 36 15 97 l25 58 93 -2 92 -1 22 -54 c25
-61 28 -89 11 -106 -9 -9 4 -12 60 -12 71 0 95 12 48 24 -23 6 -68 103 -196
419 -13 31 -27 57 -30 57 -3 0 -17 -26 -30 -57z m70 -142 c16 -45 30 -87 30
-92 0 -5 -36 -9 -80 -9 -44 0 -80 1 -80 3 0 2 24 64 72 187 12 31 16 25 58
-89z"/>
<path d="M2374 1772 c-66 -42 -70 -131 -8 -178 29 -23 41 -26 85 -22 28 3 55
12 60 19 17 26 9 30 -20 8 -59 -43 -134 5 -134 86 0 78 66 119 124 76 33 -25
39 -26 39 -7 0 20 -8 24 -66 31 -39 5 -56 2 -80 -13z"/>
<path d="M2845 1779 c-27 -3 -44 -7 -37 -7 11 -2 13 -24 10 -102 l-3 -100 68
0 c67 0 67 0 67 28 -1 23 -2 24 -11 10 -7 -12 -22 -18 -49 -18 -40 0 -40 0
-40 40 0 39 1 40 34 40 19 0 37 -6 39 -12 3 -7 6 3 6 22 1 26 -2 31 -11 22 -7
-7 -25 -12 -41 -12 -27 0 -28 2 -25 38 3 33 6 37 33 40 19 3 33 -2 42 -14 12
-17 13 -17 13 3 0 25 -24 30 -95 22z"/>
<path d="M3248 1779 c-33 -19 -22 -64 22 -100 48 -39 58 -64 34 -90 -15 -17
-15 -19 -1 -19 23 0 50 45 42 69 -3 12 -26 37 -51 57 -49 40 -52 49 -27 76 18
20 8 23 -19 7z"/>
<path d="M3310 1770 c14 -10 27 -16 30 -13 6 6 -30 33 -44 33 -6 0 0 -9 14
-20z"/>
<path d="M3636 1774 c-27 -27 -18 -54 35 -103 46 -43 50 -50 40 -69 -14 -26
-38 -28 -69 -6 -19 13 -22 13 -22 1 0 -31 78 -37 103 -9 32 35 15 77 -48 118
-32 21 -33 61 -2 74 l22 9 -22 0 c-12 1 -29 -6 -37 -15z"/>
<path d="M4073 1776 c-33 -15 -63 -60 -63 -96 0 -60 58 -110 126 -110 53 0
104 53 104 109 0 82 -87 133 -167 97z m82 -8 c54 -25 72 -108 33 -152 -37 -41
-72 -43 -108 -8 -40 41 -43 110 -5 147 27 28 42 30 80 13z"/>
<path d="M4531 1781 c-9 -6 -10 -11 -2 -15 14 -9 15 -162 1 -171 -21 -13 -9
-25 26 -25 29 0 34 3 26 13 -6 7 -13 55 -14 107 -3 92 -10 108 -37 91z"/>
<path d="M5373 1774 c-18 -9 -39 -31 -48 -51 -36 -74 21 -153 109 -153 30 0
45 7 72 34 94 94 -12 229 -133 170z m115 -30 c54 -61 11 -174 -61 -160 -75 14
-106 118 -51 173 20 20 32 24 57 19 18 -3 42 -17 55 -32z"/>
<path d="M5836 1774 c-26 -25 -18 -53 25 -92 52 -47 64 -69 48 -88 -16 -20
-46 -17 -69 6 -19 19 -20 19 -20 1 0 -35 75 -44 103 -13 28 31 20 60 -28 104
-48 44 -56 70 -27 87 15 9 15 10 0 11 -9 0 -24 -7 -32 -16z"/>
<path d="M5900 1781 c0 -5 7 -14 15 -21 12 -10 15 -10 15 3 0 8 -7 17 -15 21
-8 3 -15 2 -15 -3z"/>
<path d="M7830 1780 c-11 -7 -12 -10 -2 -10 11 0 13 -21 10 -100 l-3 -100 30
0 c22 0 26 3 17 12 -7 7 -12 27 -12 45 0 30 3 33 30 33 43 0 74 34 66 73 -6
32 -21 47 -45 47 -11 0 -11 -4 2 -18 22 -25 21 -48 -3 -72 -35 -35 -49 -26
-52 37 -3 58 -12 70 -38 53z"/>
<path d="M8689 1783 c-1 -5 0 -45 1 -90 1 -45 -3 -91 -10 -102 -10 -19 -8 -21
17 -21 l28 0 -3 97 c-2 54 -5 104 -7 111 -5 13 -24 17 -26 5z"/>
<path d="M9170 1788 c0 -2 -2 -51 -3 -111 l-2 -107 35 0 c26 0 31 3 22 12 -8
8 -12 46 -12 104 0 75 -3 93 -16 98 -17 6 -24 7 -24 4z"/>
<path d="M10088 1779 c-34 -19 -22 -63 27 -103 53 -44 61 -82 19 -92 -18 -5
-32 0 -50 17 -17 16 -24 18 -24 8 0 -43 87 -56 114 -17 24 34 20 47 -34 99
-27 27 -50 53 -50 58 0 5 10 17 22 25 25 18 4 22 -24 5z"/>
<path d="M10150 1782 c0 -4 7 -16 15 -26 15 -19 15 -19 15 1 0 11 -7 23 -15
27 -8 3 -15 2 -15 -2z"/>
<path d="M1932 1763 c-5 -10 -19 -49 -32 -88 -12 -38 -26 -74 -31 -79 -16 -17
-10 -26 18 -26 19 0 24 3 16 11 -7 7 -8 21 0 45 9 30 14 34 44 34 27 0 35 -5
44 -27 6 -15 8 -35 6 -45 -4 -14 1 -18 24 -18 30 0 36 9 19 26 -6 6 -23 48
-38 95 -29 85 -51 108 -70 72z m38 -65 c0 -10 -29 -23 -36 -15 -3 2 -2 17 2
32 7 26 8 27 20 10 8 -11 14 -23 14 -27z"/>
<path d="M3700 1776 c0 -2 7 -9 15 -16 12 -10 15 -10 15 4 0 9 -7 16 -15 16
-8 0 -15 -2 -15 -4z"/>
<path d="M4620 1760 c29 -29 25 -55 -11 -76 -14 -8 -11 -16 23 -61 51 -69 79
-72 37 -5 -30 48 -30 49 -13 79 17 29 17 32 1 57 -10 14 -26 26 -37 26 -20 0
-20 0 0 -20z"/>
<path d="M4985 1675 c0 -98 1 -105 20 -105 19 0 20 7 20 105 0 98 -1 105 -20
105 -19 0 -20 -7 -20 -105z"/>
<path d="M6555 1675 l0 -105 68 0 c66 0 67 0 67 27 0 24 -1 25 -13 9 -9 -12
-23 -17 -47 -14 -32 3 -35 6 -38 41 -3 36 -3 37 32 37 19 0 37 -6 39 -12 3 -7
5 3 5 22 0 19 -2 29 -5 23 -2 -7 -20 -13 -39 -13 -35 0 -35 1 -32 38 3 33 6
37 33 40 19 3 33 -2 42 -14 12 -17 13 -16 13 4 0 20 -5 22 -62 22 l-63 0 0
-105z"/>
<path d="M6983 1688 c-1 -55 -6 -94 -12 -96 -20 -7 -11 -22 12 -22 22 0 22 3
19 75 -2 41 0 75 4 75 5 0 22 -32 38 -70 17 -39 34 -70 39 -70 4 0 23 33 41
72 l33 73 7 -61 c4 -33 4 -68 0 -77 -5 -14 0 -17 26 -17 25 0 30 3 22 13 -6 7
-12 54 -14 105 -4 120 -21 124 -68 17 -18 -41 -36 -75 -39 -75 -4 0 -21 33
-38 73 -21 48 -37 73 -50 75 -16 2 -18 -6 -20 -90z"/>
<path d="M8258 1688 c3 -79 1 -94 -14 -105 -15 -11 -6 -13 63 -13 65 0 82 3
87 16 11 29 6 37 -13 20 -12 -11 -31 -16 -53 -14 -30 3 -33 6 -36 42 l-3 38
40 -4 c33 -3 41 0 41 13 0 12 -9 16 -37 15 -37 -1 -38 0 -38 34 0 31 3 35 28
38 16 2 35 -2 43 -9 11 -9 14 -8 14 5 0 13 -12 16 -62 16 l-63 0 3 -92z"/>
<path d="M8802 1764 c34 -18 48 -43 48 -84 0 -45 -16 -69 -58 -87 -20 -9 -31
-18 -24 -20 7 -3 26 1 43 7 73 31 93 117 40 171 -16 16 -40 29 -53 29 -22 -1
-22 -1 4 -16z"/>
<path d="M9253 1769 c27 -16 20 -89 -9 -89 -17 0 49 -95 72 -104 26 -10 26 -7
-6 40 -31 45 -32 45 -15 80 15 32 15 37 1 60 -10 14 -26 24 -39 24 -20 -1 -20
-2 -4 -11z"/>
<path d="M9650 1685 c-19 -52 -37 -95 -42 -95 -4 0 -8 -4 -8 -10 0 -5 14 -10
31 -10 25 0 29 3 20 14 -8 9 -8 21 0 45 9 26 16 31 43 31 28 0 34 -4 43 -34 8
-24 7 -38 0 -45 -8 -8 -1 -11 26 -11 20 0 37 5 37 10 0 6 -4 10 -9 10 -5 0
-24 43 -42 95 -23 65 -39 95 -50 95 -10 0 -26 -30 -49 -95z m60 13 c0 -10 -6
-18 -14 -18 -21 0 -25 11 -14 40 7 20 11 22 18 10 5 -8 10 -23 10 -32z"/>
<path d="M3220 1602 c0 -15 24 -32 45 -32 19 0 18 2 -5 20 -27 21 -40 25 -40
12z"/>
<path d="M4235 1280 c0 -91 3 -110 15 -110 12 0 14 15 12 87 l-3 88 85 -90 85
-90 1 97 c0 53 3 103 6 112 4 11 0 16 -13 16 -19 0 -20 -6 -15 -75 5 -78 -4
-94 -31 -55 -29 41 -117 130 -129 130 -10 0 -13 -27 -13 -110z"/>
<path d="M4795 1378 c-11 -32 -64 -175 -70 -190 -6 -14 -2 -18 15 -18 16 0 20
4 16 16 -3 8 1 31 9 50 11 26 20 34 40 34 20 0 29 -8 40 -34 8 -19 12 -42 9
-50 -5 -13 1 -16 26 -16 22 0 29 3 23 13 -4 6 -24 54 -43 106 -35 91 -54 118
-65 89z m21 -95 c-14 -14 -28 16 -21 44 l8 28 10 -33 c5 -18 7 -35 3 -39z"/>
<path d="M5176 1383 c-3 -4 -6 -16 -6 -27 1 -19 2 -19 11 -3 6 11 22 17 44 17
l35 0 0 -81 c0 -44 -5 -89 -10 -100 -10 -17 -7 -19 27 -19 29 0 34 3 25 12 -8
8 -12 45 -12 100 l0 88 27 0 c14 0 35 -8 46 -17 20 -17 20 -17 14 0 -4 10 -7
23 -7 27 0 10 -184 13 -194 3z"/>
<path d="M5657 1303 c6 -104 18 -123 85 -130 37 -4 49 -1 70 18 24 22 27 33
30 112 3 65 1 87 -8 87 -17 0 -27 -17 -14 -25 5 -3 10 -35 10 -71 0 -76 -20
-104 -73 -104 -55 0 -69 25 -66 117 2 72 1 78 -18 81 -20 3 -20 -1 -16 -85z"/>
<path d="M6148 1295 c3 -65 0 -100 -8 -110 -11 -13 -8 -15 17 -15 l29 0 -4
105 c-3 100 -3 105 17 105 48 0 69 -75 25 -94 -19 -9 -19 -11 -5 -26 9 -10 29
-34 44 -54 40 -52 66 -48 27 6 -33 45 -36 59 -19 87 17 27 3 70 -27 81 -14 6
-42 10 -62 10 l-37 0 3 -95z"/>
<path d="M6639 1323 c-12 -38 -30 -87 -40 -110 l-18 -43 22 0 c18 0 22 6 23
34 1 42 19 66 49 66 18 0 26 -9 35 -35 7 -20 9 -42 6 -50 -4 -11 2 -15 24 -15
30 0 37 8 22 26 -5 5 -21 45 -37 89 -45 128 -54 132 -86 38z m45 -5 c9 -35 8
-38 -14 -38 -11 0 -20 3 -20 8 0 19 13 52 20 52 4 0 10 -10 14 -22z"/>
<path d="M7060 1280 c0 -102 1 -110 19 -110 18 0 19 8 19 110 0 102 -1 110
-19 110 -18 0 -19 -8 -19 -110z"/>
<path d="M7406 1374 c-27 -26 -18 -53 35 -104 44 -43 49 -51 39 -69 -14 -27
-48 -27 -77 1 -25 24 -32 9 -7 -16 34 -34 114 -7 114 38 0 15 -19 42 -52 74
-44 43 -50 53 -39 66 17 21 40 20 63 -1 16 -14 18 -14 18 -1 0 30 -68 39 -94
12z"/>
</g>
</svg>
